HIERARCHY
ROOT root
{
  OFFSET 0 95.9893 0
  CHANNELS 6 Xposition Yposition Zposition Zrotation Xrotation Yrotation
  JOINT torso_1
  {
    OFFSET 0 5.22546 -1.18466
    CHANNELS 6 Xposition Yposition Zposition Zrotation Xrotation Yrotation
    JOINT torso_2
    {
      OFFSET 0 5.77894 1.10239
      CHANNELS 6 Xposition Yposition Zposition Zrotation Xrotation Yrotation
      JOINT torso_3
      {
        OFFSET -1.0557e-17 6.16289 0.118334
        CHANNELS 6 Xposition Yposition Zposition Zrotation Xrotation Yrotation
        JOINT torso_4
        {
          OFFSET -1.13649e-17 6.69386 -0.456341
          CHANNELS 6 Xposition Yposition Zposition Zrotation Xrotation Yrotation
          JOINT torso_5
          {
            OFFSET -2.02997e-17 7.82529 -1.54945
            CHANNELS 6 Xposition Yposition Zposition Zrotation Xrotation Yrotation
            JOINT torso_6
            {
              OFFSET -2.60628e-17 9.77186 -0.940923
              CHANNELS 6 Xposition Yposition Zposition Zrotation Xrotation Yrotation
              JOINT torso_7
              {
                OFFSET -2.98794e-17 10.8563 1.62248
                CHANNELS 6 Xposition Yposition Zposition Zrotation Xrotation Yrotation
                JOINT neck_1
                {
                  OFFSET -1.32927e-17 4.92478 0.736013
                  CHANNELS 6 Xposition Yposition Zposition Zrotation Xrotation Yrotation
                  JOINT neck_2
                  {
                    OFFSET -1.86396e-17 4.96043 0.433981
                    CHANNELS 6 Xposition Yposition Zposition Zrotation Xrotation Yrotation
                    JOINT head
                    {
                      OFFSET -2.06766e-17 4.97002 0.787173
                      CHANNELS 6 Xposition Yposition Zposition Zrotation Xrotation Yrotation
                      End Site
                      {
                        OFFSET 0 0.1 0
                      }
                    }
                  }
                }
                JOINT l_shoulder
                {
                  OFFSET 1.26863 -7.82717 7.75148
                  CHANNELS 6 Xposition Yposition Zposition Zrotation Xrotation Yrotation
                  JOINT l_up_arm
                  {
                    OFFSET 13.3291 3.34342 -3.36319
                    CHANNELS 6 Xposition Yposition Zposition Zrotation Xrotation Yrotation
                    JOINT l_low_arm
                    {
                      OFFSET 30.0522 0.0615366 0.141
                      CHANNELS 6 Xposition Yposition Zposition Zrotation Xrotation Yrotation
                      JOINT l_hand
                      {
                        OFFSET 24.9344 0.0510561 0.116988
                        CHANNELS 6 Xposition Yposition Zposition Zrotation Xrotation Yrotation
                        End Site
                        {
                          OFFSET 0.1 0 0
                        }
                      }
                    }
                  }
                }
                JOINT r_shoulder
                {
                  OFFSET -1.26863 -7.82715 7.75138
                  CHANNELS 6 Xposition Yposition Zposition Zrotation Xrotation Yrotation
                  JOINT r_up_arm
                  {
                    OFFSET -13.3291 3.34342 -3.36319
                    CHANNELS 6 Xposition Yposition Zposition Zrotation Xrotation Yrotation
                    JOINT r_low_arm
                    {
                      OFFSET -30.0522 0.0615366 0.141
                      CHANNELS 6 Xposition Yposition Zposition Zrotation Xrotation Yrotation
                      JOINT r_hand
                      {
                        OFFSET -24.9344 0.0510559 0.116988
                        CHANNELS 6 Xposition Yposition Zposition Zrotation Xrotation Yrotation
                        End Site
                        {
                          OFFSET -0.1 0 0
                        }
                      }
                    }
                  }
                }
              }
            }
          }
        }
      }
    }
  }
  JOINT l_up_leg
  {
    OFFSET 9.50369 -4.32711 2.09145
    CHANNELS 6 Xposition Yposition Zposition Zrotation Xrotation Yrotation
    JOINT l_low_leg
    {
      OFFSET -0.876987 -39.8926 -0.674123
      CHANNELS 6 Xposition Yposition Zposition Zrotation Xrotation Yrotation
      JOINT l_foot
      {
        OFFSET -2.39345 -41.5694 -6.22357
        CHANNELS 6 Xposition Yposition Zposition Zrotation Xrotation Yrotation
        JOINT l_toes
        {
          OFFSET 0.801613 -10.1701 12.8571
          CHANNELS 6 Xposition Yposition Zposition Zrotation Xrotation Yrotation
          End Site
          {
            OFFSET 0 0 0.1
          }
        }
      }
    }
  }
  JOINT r_up_leg
  {
    OFFSET -9.50369 -4.32711 2.09145
    CHANNELS 6 Xposition Yposition Zposition Zrotation Xrotation Yrotation
    JOINT r_low_leg
    {
      OFFSET 0.876987 -39.8926 -0.674123
      CHANNELS 6 Xposition Yposition Zposition Zrotation Xrotation Yrotation
      JOINT r_foot
      {
        OFFSET 2.39345 -41.5694 -6.22357
        CHANNELS 6 Xposition Yposition Zposition Zrotation Xrotation Yrotation
        JOINT r_toes
        {
          OFFSET -0.801613 -10.1701 12.8571
          CHANNELS 6 Xposition Yposition Zposition Zrotation Xrotation Yrotation
          End Site
          {
            OFFSET 0 0 0.1
          }
        }
      }
    }
  }
}
MOTION
Frames: 8
Frame Time: 0.02
0 95.9893 0 -0 0 -0 0 5.22546 -1.18466 -0 0 -0 0 5.77894 1.10239 -0 0 -0 -1.0557e-17 6.16289 0.118334 -0 0 -0 -1.13649e-17 6.69386 -0.456341 -0 0 -0 -2.02997e-17 7.82529 -1.54945 -0 0 -0 -2.60628e-17 9.77186 -0.940923 -0 0 -0 -2.98794e-17 10.8563 1.62248 -0 0 -0 -1.32927e-17 4.92478 0.736013 -0 0 -0 -1.86396e-17 4.96043 0.433981 -0 0 -0 -2.06766e-17 4.97002 0.787173 -0 0 -0 1.26863 -7.82717 7.75148 -0 0 -0 13.3291 3.34342 -3.36319 -0 0 -0 30.0522 0.0615366 0.141 -0 0 -0 24.9344 0.0510561 0.116988 -0 0 -0 -1.26863 -7.82715 7.75138 -0 0 -0 -13.3291 3.34342 -3.36319 -0 0 -0 -30.0522 0.0615366 0.141 -0 0 -0 -24.9344 0.0510559 0.116988 -0 0 -0 9.50369 -4.32711 2.09145 -0 0 -0 -0.876987 -39.8926 -0.674123 -0 0 -0 -2.39345 -41.5694 -6.22357 -0 0 -0 0.801613 -10.1701 12.8571 -0 0 -0 -9.50369 -4.32711 2.09145 -0 0 -0 0.876987 -39.8926 -0.674123 -0 0 -0 2.39345 -41.5694 -6.22357 -0 0 -0 -0.801613 -10.1701 12.8571 -0 0 -0 
8.56365 95.8218 -59.7661 0.852336 -1.56825 -6.94448 0 5.22546 -1.18466 -0.709658 -0.420149 -0.448 0 5.77894 1.10239 -0.633708 0.0195816 -0.515726 -1.0557e-17 6.16289 0.118334 -0.490348 0.632001 -0.477321 -1.13649e-17 6.69386 -0.456341 -0.318809 1.467 -0.4809 -2.02997e-17 7.82529 -1.54945 -0.215003 1.86307 -0.478592 -2.60628e-17 9.77186 -0.940923 -0.188414 2.00525 -0.597011 -2.98794e-17 10.8563 1.62248 -0.00493174 0.111299 -0.0206161 -1.32927e-17 4.92478 0.736013 0.316232 -7.14571 0.641045 -1.86396e-17 4.96043 0.433981 -2.16271 -2.26634 -0.31272 -2.06766e-17 4.97002 0.787173 -3.15636 1.98115 -1.2757 1.26863 -7.82717 7.75148 -3.44448 2.03993 -4.47568 13.3291 3.34342 -3.36319 -83.2348 2.65897 -1.3334 30.0522 0.0615366 0.141 0.521843 -0.00859978 -2.51623 24.9344 0.0510561 0.116988 -0.480834 -12.9108 -4.04198 -1.26863 -7.82715 7.75138 6.04425 4.77393 3.11307 -13.3291 3.34342 -3.36319 82.7585 16.4984 3.65778 -30.0522 0.0615366 0.141 -0.560335 -0.0103405 2.70141 -24.9344 0.0510559 0.116988 0.662973 -22.6518 -0.28413 9.50369 -4.32711 2.09145 1.76186 0.303085 -14.0271 -0.876987 -39.8926 -0.674123 0.400625 -1.49321 0.0312883 -2.39345 -41.5694 -6.22357 2.19752 2.97658 14.8464 0.801613 -10.1701 12.8571 1.2424e-15 -7.45443e-16 -3.72721e-17 -9.50369 -4.32711 2.09145 -2.54176 -3.91862 25.4133 0.876987 -39.8926 -0.674123 0.823215 3.07452 0.0315826 2.39345 -41.5694 -6.22357 -1.40227 0.54391 -14.931 -0.801613 -10.1701 12.8571 -9.93923e-16 -5.46658e-16 -1.27222e-14 
8.79622 95.8356 -59.7019 0.75246 -1.45868 -7.0797 0 5.22546 -1.18466 -0.71334 -0.511467 -0.455248 0 5.77894 1.10239 -0.633379 -0.0405693 -0.522017 -1.0557e-17 6.16289 0.118334 -0.48886 0.602783 -0.482777 -1.13649e-17 6.69386 -0.456341 -0.317196 1.48751 -0.485709 -2.02997e-17 7.82529 -1.54945 -0.213717 1.90922 -0.485467 -2.60628e-17 9.77186 -0.940923 -0.190265 2.06803 -0.603562 -2.98794e-17 10.8563 1.62248 -0.00519301 0.110654 -0.0210539 -1.32927e-17 4.92478 0.736013 0.323407 -7.17158 0.600108 -1.86396e-17 4.96043 0.433981 -2.09857 -2.27493 -0.327163 -2.06766e-17 4.97002 0.787173 -3.11029 1.95392 -1.02451 1.26863 -7.82717 7.75148 -3.61419 2.01185 -4.50431 13.3291 3.34342 -3.36319 -83.023 2.00641 -1.37792 30.0522 0.0615366 0.141 0.495192 -0.00759652 -2.38767 24.9344 0.0510561 0.116988 -0.351994 -12.564 -3.86264 -1.26863 -7.82715 7.75138 5.97448 4.7104 3.07313 -13.3291 3.34342 -3.36319 82.9868 16.327 3.68935 -30.0522 0.0615366 0.141 -0.553658 -0.010062 2.6692 -24.9344 0.0510559 0.116988 0.458044 -22.2503 -0.395847 9.50369 -4.32711 2.09145 1.72235 0.273494 -13.9579 -0.876987 -39.8926 -0.674123 0.412844 -1.53869 0.0324055 -2.39345 -41.5694 -6.22357 2.28486 2.91141 14.8317 0.801613 -10.1701 12.8571 4.96962e-17 -7.95139e-16 1.2424e-17 -9.50369 -4.32711 2.09145 -2.49224 -4.05675 25.4384 0.876987 -39.8926 -0.674123 0.841416 3.14248 0.0317818 2.39345 -41.5694 -6.22357 -1.29934 0.618096 -14.9426 -0.801613 -10.1701 12.8571 -9.93923e-16 -5.46658e-16 -1.27222e-14 
9.00357 95.888 -59.6398 0.589407 -1.31758 -7.14972 0 5.22546 -1.18466 -0.709702 -0.597646 -0.475402 0 5.77894 1.10239 -0.62589 -0.0943372 -0.54302 -1.0557e-17 6.16289 0.118334 -0.4813 0.575915 -0.504251 -1.13649e-17 6.69386 -0.456341 -0.309864 1.50105 -0.507607 -2.02997e-17 7.82529 -1.54945 -0.210878 1.94322 -0.510143 -2.60628e-17 9.77186 -0.940923 -0.197383 2.11724 -0.626167 -2.98794e-17 10.8563 1.62248 -0.00553428 0.110301 -0.0216601 -1.32927e-17 4.92478 0.736013 0.35226 -7.36477 0.675741 -1.86396e-17 4.96043 0.433981 -2.05861 -2.23245 -0.290363 -2.06766e-17 4.97002 0.787173 -3.0371 2.06589 -0.907038 1.26863 -7.82717 7.75148 -3.83285 2.01769 -4.55859 13.3291 3.34342 -3.36319 -82.7389 1.09781 -1.39276 30.0522 0.0615366 0.141 0.453299 -0.00614021 -2.18561 24.9344 0.0510561 0.116988 -0.190154 -12.1101 -3.73033 -1.26863 -7.82715 7.75138 6.01417 4.69181 3.05219 -13.3291 3.34342 -3.36319 83.0799 16.1141 3.76378 -30.0522 0.0615366 0.141 -0.535369 -0.00931824 2.58096 -24.9344 0.0510559 0.116988 0.309418 -21.966 -0.443107 9.50369 -4.32711 2.09145 1.76077 0.153897 -13.7594 -0.876987 -39.8926 -0.674123 0.40271 -1.50097 0.0314783 -2.39345 -41.5694 -6.22357 2.31583 2.92564 14.8153 0.801613 -10.1701 12.8571 4.96962e-17 -7.95139e-16 1.2424e-17 -9.50369 -4.32711 2.09145 -2.36027 -4.26795 25.4809 0.876987 -39.8926 -0.674123 0.873095 3.26077 0.032077 2.39345 -41.5694 -6.22357 -1.13665 0.883555 -14.9447 -0.801613 -10.1701 12.8571 -9.93923e-16 -5.46658e-16 -1.27222e-14 
9.17955 95.9401 -59.5603 0.434211 -1.19371 -7.15948 0 5.22546 -1.18466 -0.708435 -0.632388 -0.503546 0 5.77894 1.10239 -0.619698 -0.113198 -0.574355 -1.0557e-17 6.16289 0.118334 -0.474427 0.562364 -0.537022 -1.13649e-17 6.69386 -0.456341 -0.301842 1.49291 -0.541556 -2.02997e-17 7.82529 -1.54945 -0.208591 1.93699 -0.546557 -2.60628e-17 9.77186 -0.940923 -0.207985 2.11379 -0.660025 -2.98794e-17 10.8563 1.62248 -0.0059263 0.110203 -0.022236 -1.32927e-17 4.92478 0.736013 0.378603 -7.59186 0.770869 -1.86396e-17 4.96043 0.433981 -2.04879 -2.15876 -0.247349 -2.06766e-17 4.97002 0.787173 -2.94528 2.19471 -0.840457 1.26863 -7.82717 7.75148 -3.97828 2.06539 -4.6384 13.3291 3.34342 -3.36319 -82.4499 0.296712 -1.36947 30.0522 0.0615366 0.141 0.406977 -0.00470214 -1.96221 24.9344 0.0510561 0.116988 -0.1013 -11.7916 -3.67759 -1.26863 -7.82715 7.75138 6.06138 4.72671 3.07011 -13.3291 3.34342 -3.36319 83.1049 16.0282 3.79458 -30.0522 0.0615366 0.141 -0.513848 -0.0084792 2.47714 -24.9344 0.0510559 0.116988 0.249285 -22.0413 -0.394206 9.50369 -4.32711 2.09145 1.8129 0.0663198 -13.6907 -0.876987 -39.8926 -0.674123 0.397358 -1.48106 0.0309913 -2.39345 -41.5694 -6.22357 2.31685 2.94597 14.8029 0.801613 -10.1701 12.8571 4.47266e-16 -7.82715e-16 3.05504e-33 -9.50369 -4.32711 2.09145 -2.23363 -4.43926 25.4687 0.876987 -39.8926 -0.674123 0.902281 3.36974 0.032291 2.39345 -41.5694 -6.22357 -0.976466 1.13776 -14.9483 -0.801613 -10.1701 12.8571 -9.93923e-16 -5.46658e-16 -1.27222e-14 
9.32611 95.973 -59.4622 0.326532 -1.14764 -7.13092 0 5.22546 -1.18466 -0.729725 -0.607296 -0.534463 0 5.77894 1.10239 -0.631524 -0.0922706 -0.612576 -1.0557e-17 6.16289 0.118334 -0.479896 0.565925 -0.576619 -1.13649e-17 6.69386 -0.456341 -0.299906 1.46679 -0.582355 -2.02997e-17 7.82529 -1.54945 -0.20727 1.89303 -0.588383 -2.60628e-17 9.77186 -0.940923 -0.215116 2.06 -0.700943 -2.98794e-17 10.8563 1.62248 -0.00624471 0.110144 -0.0228149 -1.32927e-17 4.92478 0.736013 0.412281 -7.76658 0.868275 -1.86396e-17 4.96043 0.433981 -2.02319 -2.10893 -0.204442 -2.06766e-17 4.97002 0.787173 -2.84221 2.33006 -0.806052 1.26863 -7.82717 7.75148 -3.99512 2.11658 -4.70947 13.3291 3.34342 -3.36319 -82.2293 -0.244079 -1.27544 30.0522 0.0615366 0.141 0.367081 -0.00360865 -1.76981 24.9344 0.0510561 0.116988 -0.0790213 -11.5956 -3.66496 -1.26863 -7.82715 7.75138 6.0311 4.76834 3.09286 -13.3291 3.34342 -3.36319 83.2126 16.0587 3.74976 -30.0522 0.0615366 0.141 -0.497043 -0.00785126 2.39608 -24.9344 0.0510559 0.116988 0.229806 -22.3571 -0.333446 9.50369 -4.32711 2.09145 1.82453 0.0769743 -13.7674 -0.876987 -39.8926 -0.674123 0.39901 -1.48721 0.0311414 -2.39345 -41.5694 -6.22357 2.34544 2.94944 14.7917 0.801613 -10.1701 12.8571 4.96962e-17 -7.95139e-16 1.2424e-17 -9.50369 -4.32711 2.09145 -2.16392 -4.48481 25.4222 0.876987 -39.8926 -0.674123 0.920396 3.43737 0.0323958 2.39345 -41.5694 -6.22357 -0.865699 1.28553 -14.9544 -0.801613 -10.1701 12.8571 1.98785e-16 -5.96354e-16 -1.27719e-14 
9.45404 95.9828 -59.3523 0.322542 -1.15506 -7.08017 0 5.22546 -1.18466 -0.788635 -0.535497 -0.559226 0 5.77894 1.10239 -0.675207 -0.0432586 -0.649425 -1.0557e-17 6.16289 0.118334 -0.508702 0.579887 -0.614484 -1.13649e-17 6.69386 -0.456341 -0.312714 1.42366 -0.62125 -2.02997e-17 7.82529 -1.54945 -0.210977 1.8176 -0.625481 -2.60628e-17 9.77186 -0.940923 -0.216629 1.96522 -0.739087 -2.98794e-17 10.8563 1.62248 -0.00644755 0.110082 -0.023363 -1.32927e-17 4.92478 0.736013 0.447212 -7.85963 0.93392 -1.86396e-17 4.96043 0.433981 -1.96724 -2.09481 -0.175474 -2.06766e-17 4.97002 0.787173 -2.73101 2.41261 -0.805718 1.26863 -7.82717 7.75148 -3.86637 2.14862 -4.74606 13.3291 3.34342 -3.36319 -82.1275 -0.51725 -1.10005 30.0522 0.0615366 0.141 0.341666 -0.00298222 -1.64726 24.9344 0.0510561 0.116988 -0.0873077 -11.4169 -3.68028 -1.26863 -7.82715 7.75138 5.91416 4.7962 3.09771 -13.3291 3.34342 -3.36319 83.4547 16.1804 3.61619 -30.0522 0.0615366 0.141 -0.492176 -0.00767404 2.3726 -24.9344 0.0510559 0.116988 0.227954 -22.7859 -0.268882 9.50369 -4.32711 2.09145 1.72966 0.151503 -13.838 -0.876987 -39.8926 -0.674123 0.408394 -1.52213 0.0319976 -2.39345 -41.5694 -6.22357 2.39078 2.95251 14.7788 0.801613 -10.1701 12.8571 -3.47873e-16 -8.07563e-16 2.48481e-17 -9.50369 -4.32711 2.09145 -2.21128 -4.41286 25.3886 0.876987 -39.8926 -0.674123 0.917752 3.4275 0.0323818 2.39345 -41.5694 -6.22357 -0.831273 1.28051 -14.9639 -0.801613 -10.1701 12.8571 -5.96354e-16 -5.59082e-16 -1.27471e-14 
9.5715 95.9791 -59.2303 0.381233 -1.18115 -7.0151 0 5.22546 -1.18466 -0.862662 -0.448617 -0.574978 0 5.77894 1.10239 -0.732633 0.0109193 -0.678193 -1.0557e-17 6.16289 0.118334 -0.547714 0.592443 -0.643757 -1.13649e-17 6.69386 -0.456341 -0.332547 1.36815 -0.651181 -2.02997e-17 7.82529 -1.54945 -0.216136 1.72654 -0.652237 -2.60628e-17 9.77186 -0.940923 -0.212705 1.85128 -0.768391 -2.98794e-17 10.8563 1.62248 -0.00650238 0.110124 -0.0238101 -1.32927e-17 4.92478 0.736013 0.479642 -7.8802 0.96424 -1.86396e-17 4.96043 0.433981 -1.88549 -2.09474 -0.161991 -2.06766e-17 4.97002 0.787173 -2.63767 2.44202 -0.848045 1.26863 -7.82717 7.75148 -3.65875 2.16786 -4.74852 13.3291 3.34342 -3.36319 -82.1276 -0.591939 -0.876215 30.0522 0.0615366 0.141 0.328911 -0.00268867 -1.58576 24.9344 0.0510561 0.116988 -0.12157 -11.2035 -3.72539 -1.26863 -7.82715 7.75138 5.77607 4.81766 3.08893 -13.3291 3.34342 -3.36319 83.7492 16.2906 3.41457 -30.0522 0.0615366 0.141 -0.49857 -0.00790793 2.40345 -24.9344 0.0510559 0.116988 0.222719 -23.1905 -0.215587 9.50369 -4.32711 2.09145 1.56739 0.253888 -13.7893 -0.876987 -39.8926 -0.674123 0.423151 -1.57705 0.0333554 -2.39345 -41.5694 -6.22357 2.43805 2.95078 14.7642 0.801613 -10.1701 12.8571 4.47266e-16 -7.82715e-16 3.05504e-33 -9.50369 -4.32711 2.09145 -2.32646 -4.28334 25.3795 0.876987 -39.8926 -0.674123 0.90555 3.38195 0.0323115 2.39345 -41.5694 -6.22357 -0.850883 1.17704 -14.9754 -0.801613 -10.1701 12.8571 -1.39149e-15 -5.34234e-16 -1.27098e-14 
